<?xml version="1.0" standalone="no"?>
<!DOCTYPE svg PUBLIC "-//W3C//DTD SVG 20010904//EN"
 "http://www.w3.org/TR/2001/REC-SVG-20010904/DTD/svg10.dtd">
<svg version="1.0" xmlns="http://www.w3.org/2000/svg"
 width="307.000000pt" height="307.000000pt" viewBox="0 0 307.000000 307.000000"
 preserveAspectRatio="xMidYMid meet">
<metadata>
Created by potrace 1.11, written by Peter Selinger 2001-2013
</metadata>
<g transform="translate(0.000000,307.000000) scale(0.100000,-0.100000)"
fill="#000000" stroke="none">
<path d="M472 3060 c-84 -20 -159 -82 -182 -150 -3 -8 -6 -658 -8 -1444 -2
-1320 -1 -1431 14 -1448 16 -17 40 -18 351 -18 311 0 334 1 352 19 17 17 18
65 18 1274 0 1201 1 1258 18 1277 16 18 31 20 137 20 103 0 120 -2 137 -19 19
-19 19 -52 19 -1275 0 -1190 1 -1258 17 -1276 17 -18 32 -20 187 -20 155 0
170 2 188 20 20 20 20 33 20 1279 l0 1260 22 15 c35 25 228 23 258 -2 l23 -19
1 -1262 c1 -1238 1 -1263 20 -1277 16 -11 81 -14 351 -14 310 0 333 1 349 18
15 18 16 124 14 1448 l-3 1429 -30 48 c-16 26 -46 58 -66 71 -86 57 -36 55
-1149 54 -564 0 -1040 -4 -1058 -8z"/>
</g>
</svg>
