<svg id="_4k" data-name="4k" xmlns="http://www.w3.org/2000/svg" viewBox="0 0 92 92"><defs><style>.cls-1{fill:#fff;}.cls-1,.cls-2{stroke:#24282c;stroke-miterlimit:10;stroke-width:2px;}.cls-2{fill:none;}.cls-3{fill:#21262a;}.cls-4{fill:#1f2428;}</style></defs><title>icon_uhd4k</title><rect class="cls-1" x="1" y="1" width="90" height="90" rx="5.5" ry="5.5"/><line class="cls-2" x1="6" y1="56" x2="86" y2="56"/><path class="cls-3" d="M38.7,79.2c0,6.75-2.3,9.22-8.61,9.22C23.44,88.42,21,86,21,79.2V65.92H25.9V79.2c0,4.06,1,5.28,4,5.28s3.94-1.22,3.94-5.28V65.92h4.9V79.2Z" transform="translate(-4 -4)"/><path class="cls-3" d="M60.53,88H55.66V78.14H47.86V88H43V65.92h4.86v8.45h7.81V65.92h4.86V88Z" transform="translate(-4 -4)"/><path class="cls-3" d="M65,65.92c2.53-.16,5.21-0.29,8.58-0.29C80.53,65.63,83,68.23,83,77s-2.46,11.33-9.41,11.33c-3.33,0-6-.13-8.58-0.29V65.92Zm4.86,18.49c1.12,0,2.37,0,3.71,0,3.3,0,4.29-1.7,4.29-7.49s-1-7.52-4.29-7.52l-3.71,0V84.42Z" transform="translate(-4 -4)"/><path class="cls-4" d="M48.93,40.53l-3.44.57H45.41v6.23H39.63V41.1H28.43a3.21,3.21,0,0,1-3-4.59L32.78,19h5.9L32,35.32c-0.41.9,0,1.35,0.82,1.35h6.85V29l1-4.51h4.76V36.67h3.53v3.85Z" transform="translate(-4 -4)"/><path class="cls-4" d="M59,34.87a16.44,16.44,0,0,1,.29,2.71v9.76H53.08V19h6.23v8A18.61,18.61,0,0,1,59,30.4h2.42L68.61,19h6.76l-7.3,11.27a6.84,6.84,0,0,1-2,2.25v0.16a9.26,9.26,0,0,1,2.38,2.5l7.46,12.1h-7L61.44,34.87H59Z" transform="translate(-4 -4)"/></svg>