<svg id="_71andr" data-name="71andr" xmlns="http://www.w3.org/2000/svg" viewBox="0 0 92 92"><defs><style>.cls-1{fill:#fff;}.cls-1,.cls-2{stroke:#24282c;stroke-miterlimit:10;stroke-width:2px;}.cls-2{fill:none;}.cls-3{fill:#21262a;}.cls-4{fill:#1f2428;}</style></defs><title>icon_android7</title><rect class="cls-1" x="1" y="1" width="90" height="90" rx="5.5" ry="5.5"/><line class="cls-2" x1="6" y1="56" x2="86" y2="56"/><path class="cls-3" d="M13.66,79.77l-1.1,4H9.12l4.38-14.3a1.16,1.16,0,0,1,1.17-.88h3.17a1.14,1.14,0,0,1,1.17.88l4.38,14.3H20l-1.1-4H13.66Zm3.21-7.24c-0.11-.46-0.24-1-0.31-1.43H16c-0.11.46-.22,1-0.33,1.43l-1.28,4.64h3.78Z" transform="translate(-4 -4)"/><path class="cls-3" d="M27.63,74.51a7.51,7.51,0,0,1,4.64-1.91,2.71,2.71,0,0,1,3,3v8.14H32.07V76.62c0-1-.26-1.28-1.06-1.28a6.92,6.92,0,0,0-3,1v7.42H24.74V72.9h2.64Z" transform="translate(-4 -4)"/><path class="cls-3" d="M48.31,83.75H45.73l-0.26-1.58A5.3,5.3,0,0,1,41.33,84c-2.77,0-3.85-2.09-3.85-5.79,0-4.33,1.43-5.63,4.16-5.63a6.24,6.24,0,0,1,3.52,1c-0.07-.73-0.11-1.5-0.11-2.27V68.35h3.26v15.4Zm-3.26-8.32A7.83,7.83,0,0,0,42.74,75c-1.39,0-1.91.46-1.91,3.19s0.53,3.13,1.8,3.13a4,4,0,0,0,2.42-.88v-5Z" transform="translate(-4 -4)"/><path class="cls-3" d="M58.45,75.61H57.57a10.72,10.72,0,0,0-3.32.75v7.39H51V72.9h2.53l0.29,1.58a7,7,0,0,1,4.4-1.89h0.57Z" transform="translate(-4 -4)"/><path class="cls-3" d="M70.88,78.34c0,4.16-1.52,5.7-5.57,5.7s-5.59-1.54-5.59-5.7,1.52-5.74,5.59-5.74S70.88,74.16,70.88,78.34Zm-7.75,0c0,2.6.46,3.26,2.18,3.26s2.16-.66,2.16-3.26S67,75,65.31,75,63.14,75.7,63.14,78.34Z" transform="translate(-4 -4)"/><path class="cls-3" d="M75.52,68.11a0.84,0.84,0,0,1,.95.95v1.19a0.83,0.83,0,0,1-.95.95H74.07a0.83,0.83,0,0,1-.95-0.95V69.05a0.84,0.84,0,0,1,.95-0.95h1.45ZM73.19,83.75V72.9h3.23V83.75H73.19Z" transform="translate(-4 -4)"/><path class="cls-3" d="M89.56,83.75H87l-0.26-1.58A5.3,5.3,0,0,1,82.58,84c-2.77,0-3.85-2.09-3.85-5.79,0-4.33,1.43-5.63,4.16-5.63a6.24,6.24,0,0,1,3.52,1c-0.07-.73-0.11-1.5-0.11-2.27V68.35h3.26v15.4ZM86.3,75.43A7.84,7.84,0,0,0,84,75c-1.39,0-1.91.46-1.91,3.19s0.53,3.13,1.8,3.13a4,4,0,0,0,2.42-.88v-5Z" transform="translate(-4 -4)"/><path class="cls-4" d="M45.16,19c2.05,0,3.16,1.43,2.5,3.32l-8.57,25H32.94l7.17-20.5a11.81,11.81,0,0,1,1.19-2.67H28.43L28.19,19h17Z" transform="translate(-4 -4)"/><path class="cls-4" d="M52.83,41.14c1.6,0,2.13.49,2.13,2.09v2c0,1.6-.53,2.13-2.13,2.13H51.19c-1.6,0-2.13-.53-2.13-2.13v-2c0-1.6.53-2.09,2.13-2.09h1.64Z" transform="translate(-4 -4)"/><path class="cls-4" d="M62.88,47.33V27.41a15.8,15.8,0,0,1,.25-3.07l-6.6,1.72-0.74-4.18L62.88,19h6.23V47.33H62.88Z" transform="translate(-4 -4)"/></svg>