<svg id="_2core" data-name="2core" xmlns="http://www.w3.org/2000/svg" viewBox="0 0 92 92"><defs><style>.cls-1{fill:#fff;}.cls-1,.cls-2{stroke:#24282c;stroke-miterlimit:10;stroke-width:2px;}.cls-2{fill:none;}.cls-3{fill:#21262a;}.cls-4{fill:#1f2428;}</style></defs><title>icon_cpu2core</title><rect class="cls-1" x="1" y="1" width="90" height="90" rx="5.5" ry="5.5"/><line class="cls-2" x1="6" y1="56" x2="86" y2="56"/><path class="cls-3" d="M37.76,87.49a21.73,21.73,0,0,1-7.07.9c-6.82,0-9.28-3-9.28-11.42s2.46-11.42,9.28-11.42a23.35,23.35,0,0,1,6.62.74L36.9,69.92c-2.08-.13-3.42-0.16-6.21-0.16-3.2,0-4.16,1.63-4.16,7.2s1,7.2,4.16,7.2a49,49,0,0,0,6.66-.29Z" transform="translate(-4 -4)"/><path class="cls-3" d="M40.9,65.92a77,77,0,0,1,8.38-.29c6.11,0,8.06,1.57,8.06,7.2s-2,7.23-7.42,7.23a34.13,34.13,0,0,1-4.16-.26V88H40.9V65.92Zm8.29,10.4c2.5,0,3.26-.74,3.26-3.49s-0.77-3.46-3.26-3.46l-3.42,0v6.91h3.42Z" transform="translate(-4 -4)"/><path class="cls-3" d="M78,79.2c0,6.75-2.3,9.22-8.61,9.22-6.66,0-9.05-2.46-9.05-9.22V65.92h4.86V79.2c0,4.06,1,5.28,4,5.28s3.94-1.22,3.94-5.28V65.92H78V79.2Z" transform="translate(-4 -4)"/><path class="cls-4" d="M37.65,40.53l-3.44.57H34.12v6.23H28.34V41.1H17.15a3.21,3.21,0,0,1-3-4.59L21.49,19h5.9L20.67,35.32c-0.41.9,0,1.35,0.82,1.35h6.85V29l1-4.51h4.76V36.67h3.53v3.85Z" transform="translate(-4 -4)"/><path class="cls-4" d="M55.42,46.91a10.09,10.09,0,0,1-3.82.66c-3.62,0-4.94-1.38-4.94-5.18s1.34-5.2,5-5.2a9.89,9.89,0,0,1,3.64.62L55,39.65c-1.08,0-2.08,0-2.82,0-1.78,0-2.38.6-2.38,2.78s0.6,2.78,2.38,2.78a23.36,23.36,0,0,0,3-.18Z" transform="translate(-4 -4)"/><path class="cls-4" d="M66.8,42.41c0,3.78-1.38,5.18-5.06,5.18s-5.08-1.4-5.08-5.18,1.38-5.22,5.08-5.22S66.8,38.61,66.8,42.41Zm-7,0c0,2.36.42,3,2,3s2-.6,2-3-0.44-3-2-3S59.76,40,59.76,42.41Z" transform="translate(-4 -4)"/><path class="cls-4" d="M75.6,39.93H74.8a9.75,9.75,0,0,0-3,.68v6.72h-3V37.47h2.3l0.26,1.44a6.39,6.39,0,0,1,4-1.72H75.9Z" transform="translate(-4 -4)"/><path class="cls-4" d="M79.9,43.39c0.18,1.48.84,1.82,2.34,1.82,0.9,0,2.34-.08,3.68-0.22l0.28,1.84a10.82,10.82,0,0,1-4.3.74c-3.74,0-5.14-1.52-5.14-5.16,0-3.9,1.44-5.22,5-5.22,3.36,0,4.66,1.18,4.68,3.44,0,1.8-.86,2.76-3,2.76H79.9Zm2.74-1.78a0.83,0.83,0,0,0,.92-1c0-.92-0.4-1.24-1.68-1.24-1.48,0-2,.4-2,2.26h2.8Z" transform="translate(-4 -4)"/></svg>