<?xml version="1.0" encoding="utf-8"?>
<!-- Generator: Adobe Illustrator 19.2.1, SVG Export Plug-In . SVG Version: 6.00 Build 0)  -->
<svg version="1.1" id="Layer_1" xmlns="http://www.w3.org/2000/svg" xmlns:xlink="http://www.w3.org/1999/xlink" x="0px" y="0px"
	 viewBox="0 0 26 26" style="enable-background:new 0 0 26 26;" xml:space="preserve">
<style type="text/css">
	.st0{fill:#272A2E;}
	.st1{fill:#FFFFFF;}
</style>
<g>
	<g>
		<path class="st0" d="M13,0C8.2,0,4.3,3.9,4.3,8.7c0,1.4,0.4,2.9,1,4.1l7.2,12.9c0.1,0.2,0.3,0.3,0.5,0.3s0.4-0.1,0.5-0.3l7.2-12.9
			c0.7-1.3,1-2.7,1-4.1C21.7,3.9,17.8,0,13,0z"/>
	</g>
	<path class="st1" d="M8.7,5.3v9.4c0,0.1,0.1,0.2,0.2,0.2h2.1c0.1,0,0.2-0.1,0.2-0.2V6.3c0-0.1,0.1-0.2,0.2-0.2h0.7
		c0.1,0,0.2,0.1,0.2,0.2v8.4c0,0.1,0.1,0.2,0.2,0.2h1c0.1,0,0.2-0.1,0.2-0.2V6.3c0-0.1,0.1-0.2,0.2-0.2h0.6c0.1,0,0.2,0.1,0.2,0.2
		v8.4c0,0.1,0.1,0.2,0.2,0.2h2.1c0.1,0,0.2-0.1,0.2-0.2V5.4c0,0,0.1-1-1.1-1c-1.2,0-6.4,0-6.4,0C9.7,4.5,8.7,4.4,8.7,5.3z"/>
</g>
</svg>
