<svg id="rom" xmlns="http://www.w3.org/2000/svg" viewBox="0 0 92 92"><defs><style>.cls-1{fill:#fff;}.cls-1,.cls-2{stroke:#24282c;stroke-miterlimit:10;stroke-width:2px;}.cls-2{fill:none;}.cls-3{fill:#21262a;}.cls-4{fill:#1f2428;}</style></defs><title>logo_rom16gb</title><rect class="cls-1" x="1" y="1" width="90" height="90" rx="5.5" ry="5.5"/><line class="cls-2" x1="6" y1="56" x2="86" y2="56"/><path class="cls-3" d="M29.23,88l-1.66-6.75a2.13,2.13,0,0,0-2.37-1.86l-3.42,0V88H17V65.92a77.63,77.63,0,0,1,8.42-.29c5.76,0,8.16,1.47,8.16,6.53,0,3.1-1.09,5.09-4.22,5.47v0.16a4.07,4.07,0,0,1,3.14,3.33L34.38,88H29.23ZM25.3,75.62c2.56,0,3.33-.7,3.33-3.14s-0.77-3.1-3.33-3.1l-3.52,0v6.21H25.3Z" transform="translate(-4 -4)"/><path class="cls-3" d="M55.66,77c0,8.86-2.5,11.46-9.47,11.46S36.75,85.82,36.75,77s2.46-11.46,9.44-11.46S55.66,68.1,55.66,77ZM41.87,77c0,5.86,1,7.52,4.32,7.52s4.32-1.66,4.32-7.52-1-7.52-4.32-7.52S41.87,71.11,41.87,77Z" transform="translate(-4 -4)"/><path class="cls-3" d="M81.81,65.92a1.65,1.65,0,0,1,1.82,1.82L84.49,88H79.89L79.15,69.73H78.61L75.28,83.39a1.82,1.82,0,0,1-2,1.57h-3.2a1.82,1.82,0,0,1-2-1.57L64.75,69.73H64.21L63.57,88H59l0.8-20.25a1.67,1.67,0,0,1,1.82-1.82h4.7a1.8,1.8,0,0,1,1.92,1.57l2.69,11c0.26,1.06.42,2.08,0.58,3.1h0.42c0.19-1,.35-2,0.58-3.1l2.66-11a1.86,1.86,0,0,1,2-1.57h4.7Z" transform="translate(-4 -4)"/><path class="cls-4" d="M21.51,47.33V27.41a15.8,15.8,0,0,1,.25-3.07l-6.6,1.72-0.74-4.18L21.51,19h6.23V47.33H21.51Z" transform="translate(-4 -4)"/><path class="cls-4" d="M51.81,23.39c-2.13-.08-3.36-0.08-6.35-0.08-4.1,0-5.45,1.07-5.74,7.42,1.72-1.56,3.48-2.05,6.23-2.05,6.23,0,8.08,2.54,8.08,9S52.35,47.83,44.1,47.83s-10.46-3-10.46-14.35c0-12.92,3.94-14.92,11.81-14.92a25.07,25.07,0,0,1,6.68.74ZM48.12,37.78c0-3.48-.78-4.55-4-4.55a7.28,7.28,0,0,0-4.47,1.48c0,6.85.41,8.32,4.47,8.32C47.79,43,48.12,41.39,48.12,37.78Z" transform="translate(-4 -4)"/><path class="cls-4" d="M72.55,38.93a3.7,3.7,0,0,1,.24,1.42c0,2.26-1.16,3.16-4.64,3.16a14.15,14.15,0,0,1-1.7-.1A0.74,0.74,0,0,0,67,44.59L70.61,45c2.06,0.24,2.86,1.16,2.86,2.94,0,2.56-1.38,3.2-5.18,3.2-4.1,0-5.2-.74-5.2-2.94a2.16,2.16,0,0,1,1.56-2.14A2,2,0,0,1,65,43a2.57,2.57,0,0,1-1.46-2.66c0-2.3,1.18-3.18,4.66-3.18a9.94,9.94,0,0,1,2.58.28h3.18l-0.14,1.3Zm-6,7.76a1.34,1.34,0,0,0-.64,1.14c0,1,.44,1.12,2.34,1.12s2.4-.18,2.4-1.08c0-.72-0.36-0.78-1.62-0.92Zm3.5-6.34c0-1-.44-1.26-1.9-1.26s-1.92.28-1.92,1.26,0.46,1.28,1.92,1.28S70.05,41.31,70.05,40.35Z" transform="translate(-4 -4)"/><path class="cls-4" d="M78.35,36.47a8.68,8.68,0,0,1-.26,2.32,5,5,0,0,1,3.5-1.6c2.54,0,3.62,1.46,3.62,5.12,0,3-.88,5.26-4.82,5.26a16,16,0,0,1-5-.76V33.33h3v3.14Zm0,8.72a9,9,0,0,0,2,.18c1.34,0,1.84-.7,1.84-3,0-2.14-.3-2.78-1.76-2.78a3.67,3.67,0,0,0-2.08.84v4.8Z" transform="translate(-4 -4)"/></svg>