<svg id="gpu" xmlns="http://www.w3.org/2000/svg" viewBox="0 0 92 92"><defs><style>.cls-1{fill:#fff;}.cls-1,.cls-2{stroke:#24282c;stroke-miterlimit:10;stroke-width:2px;}.cls-2{fill:none;}.cls-3{fill:#21262a;}.cls-4{fill:#1f2428;}</style></defs><title>icon_gpu5core</title><rect class="cls-1" x="1" y="1" width="90" height="90" rx="5.5" ry="5.5"/><line class="cls-2" x1="6" y1="56" x2="86" y2="56"/><path class="cls-3" d="M37.9,88H34.32l-0.45-2.21a8.9,8.9,0,0,1-6.37,2.62c-5,0-7-3.42-7-11.52,0-8.74,2.62-11.39,9.89-11.39a24.72,24.72,0,0,1,6.78.77l-0.38,3.58c-2.18-.1-4.32-0.16-6.24-0.16-3.68,0-4.9,1-4.9,7.36,0,5.5.86,7.2,3.62,7.2a8.13,8.13,0,0,0,4-1.12V75.26h4.7V88Z" transform="translate(-4 -4)"/><path class="cls-3" d="M41.84,65.92a77,77,0,0,1,8.38-.29c6.11,0,8.06,1.57,8.06,7.2s-2,7.23-7.42,7.23a34.13,34.13,0,0,1-4.16-.26V88H41.84V65.92Zm8.29,10.4c2.5,0,3.26-.74,3.26-3.49s-0.77-3.46-3.26-3.46l-3.42,0v6.91h3.42Z" transform="translate(-4 -4)"/><path class="cls-3" d="M79,79.2c0,6.75-2.3,9.22-8.61,9.22-6.66,0-9.05-2.46-9.05-9.22V65.92h4.86V79.2c0,4.06,1,5.28,4,5.28s3.94-1.22,3.94-5.28V65.92H79V79.2Z" transform="translate(-4 -4)"/><path class="cls-4" d="M22.78,23.88L22.46,29l4.06,0.49c6.85,0.74,8.94,4.1,8.94,9.18,0,4.84-2,9.14-9.88,9.14a60.42,60.42,0,0,1-9.43-.9l0.57-4.84c2.67,0.29,5.33.49,7.3,0.49,4.26,0,5.17-1.23,5.25-4,0.16-3.61-1.6-3.94-6.6-4.39l-3.44-.41a2.12,2.12,0,0,1-2-2.3L17.94,19H34.59l-0.21,4.84H22.78Z" transform="translate(-4 -4)"/><path class="cls-4" d="M53.68,46.91a10.09,10.09,0,0,1-3.82.66c-3.62,0-4.94-1.38-4.94-5.18s1.34-5.2,5-5.2a9.89,9.89,0,0,1,3.64.62l-0.32,1.84c-1.08,0-2.08,0-2.82,0-1.78,0-2.38.6-2.38,2.78s0.6,2.78,2.38,2.78a23.36,23.36,0,0,0,3-.18Z" transform="translate(-4 -4)"/><path class="cls-4" d="M65.06,42.41c0,3.78-1.38,5.18-5.06,5.18s-5.08-1.4-5.08-5.18S56.3,37.19,60,37.19,65.06,38.61,65.06,42.41Zm-7,0c0,2.36.42,3,2,3s2-.6,2-3-0.44-3-2-3S58,40,58,42.41Z" transform="translate(-4 -4)"/><path class="cls-4" d="M73.86,39.93h-0.8a9.75,9.75,0,0,0-3,.68v6.72h-3V37.47h2.3l0.26,1.44a6.39,6.39,0,0,1,4-1.72h0.52Z" transform="translate(-4 -4)"/><path class="cls-4" d="M78.16,43.39c0.18,1.48.84,1.82,2.34,1.82,0.9,0,2.34-.08,3.68-0.22l0.28,1.84a10.82,10.82,0,0,1-4.3.74c-3.74,0-5.14-1.52-5.14-5.16,0-3.9,1.44-5.22,5-5.22,3.36,0,4.66,1.18,4.68,3.44,0,1.8-.86,2.76-3,2.76H78.16Zm2.74-1.78a0.83,0.83,0,0,0,.92-1c0-.92-0.4-1.24-1.68-1.24-1.48,0-2,.4-2,2.26h2.8Z" transform="translate(-4 -4)"/></svg>