<svg id="ram" xmlns="http://www.w3.org/2000/svg" viewBox="0 0 92 92"><defs><style>.cls-1{fill:#fff;}.cls-1,.cls-2{stroke:#24282c;stroke-miterlimit:10;stroke-width:2px;}.cls-2{fill:none;}.cls-3{fill:#21262a;}.cls-4{fill:#1f2428;}</style></defs><title>1</title><rect class="cls-1" x="1" y="1" width="90" height="90" rx="5.5" ry="5.5"/><line class="cls-2" x1="6" y1="56" x2="86" y2="56"/><path class="cls-3" d="M29.23,88l-1.66-6.75a2.13,2.13,0,0,0-2.37-1.86l-3.42,0V88H17V65.92a77.63,77.63,0,0,1,8.42-.29c5.76,0,8.16,1.47,8.16,6.53,0,3.1-1.09,5.09-4.22,5.47v0.16a4.07,4.07,0,0,1,3.14,3.33L34.38,88H29.23ZM25.3,75.62c2.56,0,3.33-.7,3.33-3.14s-0.77-3.1-3.33-3.1l-3.52,0v6.21H25.3Z" transform="translate(-4 -4)"/><path class="cls-3" d="M41.94,82.21L40.34,88h-5l6.37-20.8a1.69,1.69,0,0,1,1.7-1.28H48a1.66,1.66,0,0,1,1.7,1.28L56.08,88h-5l-1.6-5.79H41.94Zm4.67-10.53c-0.16-.67-0.35-1.41-0.45-2.08H45.3c-0.16.67-.32,1.41-0.48,2.08L43,78.43h5.5Z" transform="translate(-4 -4)"/><path class="cls-3" d="M80.78,65.92a1.65,1.65,0,0,1,1.82,1.82L83.47,88H78.86L78.13,69.73H77.58L74.25,83.39a1.82,1.82,0,0,1-2,1.57h-3.2a1.82,1.82,0,0,1-2-1.57L63.73,69.73H63.18L62.54,88H57.94l0.8-20.25a1.67,1.67,0,0,1,1.82-1.82h4.7a1.8,1.8,0,0,1,1.92,1.57l2.69,11c0.26,1.06.42,2.08,0.58,3.1h0.42c0.19-1,.35-2,0.58-3.1l2.66-11a1.86,1.86,0,0,1,2-1.57h4.7Z" transform="translate(-4 -4)"/><path class="cls-4" d="M25.06,19.53a43.21,43.21,0,0,1,9.51-1c5.78,0,9.47,1.19,9.47,6.56,0,3.28-.86,5.37-4.59,9.35L32.19,42a23.9,23.9,0,0,1,4.18-.29h8.49v5.62h-20V43.85a3.36,3.36,0,0,1,.9-2.54l6.93-7.46c3.32-3.44,5.08-6.07,5-8.08,0-1.68-1.31-1.89-3.85-1.89a84.08,84.08,0,0,0-8.53.37Z" transform="translate(-4 -4)"/><path class="cls-4" d="M63.55,38.93a3.7,3.7,0,0,1,.24,1.42c0,2.26-1.16,3.16-4.64,3.16a14.15,14.15,0,0,1-1.7-.1A0.74,0.74,0,0,0,58,44.59L61.61,45c2.06,0.24,2.86,1.16,2.86,2.94,0,2.56-1.38,3.2-5.18,3.2-4.1,0-5.2-.74-5.2-2.94a2.16,2.16,0,0,1,1.56-2.14A2,2,0,0,1,56,43a2.57,2.57,0,0,1-1.46-2.66c0-2.3,1.18-3.18,4.66-3.18a9.94,9.94,0,0,1,2.58.28h3.18l-0.14,1.3Zm-6,7.76a1.34,1.34,0,0,0-.64,1.14c0,1,.44,1.12,2.34,1.12s2.4-.18,2.4-1.08c0-.72-0.36-0.78-1.62-0.92Zm3.5-6.34c0-1-.44-1.26-1.9-1.26s-1.92.28-1.92,1.26,0.46,1.28,1.92,1.28S61.05,41.31,61.05,40.35Z" transform="translate(-4 -4)"/><path class="cls-4" d="M69.35,36.47a8.68,8.68,0,0,1-.26,2.32,5,5,0,0,1,3.5-1.6c2.54,0,3.62,1.46,3.62,5.12,0,3-.88,5.26-4.82,5.26a16,16,0,0,1-5-.76V33.33h3v3.14Zm0,8.72a9,9,0,0,0,2,.18c1.34,0,1.84-.7,1.84-3,0-2.14-.3-2.78-1.76-2.78a3.67,3.67,0,0,0-2.08.84v4.8Z" transform="translate(-4 -4)"/></svg>