<?xml version="1.0" encoding="utf-8"?>
<!-- Generator: Adobe Illustrator 19.2.1, SVG Export Plug-In . SVG Version: 6.00 Build 0)  -->
<svg version="1.1" id="logo" xmlns="http://www.w3.org/2000/svg" xmlns:xlink="http://www.w3.org/1999/xlink" x="0px" y="0px"
	 viewBox="0 0 304.7 85" style="enable-background:new 0 0 304.7 85;" xml:space="preserve">
<style type="text/css">
	.st0{fill:#272A2E;}
</style>
<g>
	<path class="st0" d="M5.5,11v66.2c0,0.8,0.6,1.4,1.4,1.4h14.8c0.8,0,1.4-0.6,1.4-1.4V17.9c0-0.8,0.6-1.4,1.4-1.4h4.7
		c0.8,0,1.4,0.6,1.4,1.4v59.3c0,0.8,0.6,1.4,1.4,1.4h7c0.8,0,1.4-0.6,1.4-1.4V17.9c0-0.8,0.6-1.4,1.4-1.4h4.5c0.8,0,1.4,0.6,1.4,1.4
		v59.3c0,0.8,0.6,1.4,1.4,1.4h14.8c0.8,0,1.4-0.6,1.4-1.4V11.7c0,0,0.7-6.7-7.5-6.7c-8.2,0-44.7,0-44.7,0C12.3,5.1,5.5,4.6,5.5,11z"
		/>
	<path class="st0" d="M105.5,16.5H92.3c-0.8,0-1.5,0.7-1.5,1.5v17.4c0,0.8,0.7,1.5,1.5,1.5h13.3c0.8,0,1.5,0.7,1.5,1.5v6.6
		c0,0.8-0.7,1.5-1.5,1.5H92.3c-0.8,0-1.5,0.7-1.5,1.5v17.8c0,0.8,0.7,1.5,1.5,1.5h13.3c0.8,0,1.5,0.7,1.5,1.5v8.8
		c0,0.8-0.7,1.5-1.5,1.5H75.1c-0.8,0-1.5-0.7-1.5-1.5V6.4c0-0.8,0.7-1.5,1.5-1.5h30.4c0.8,0,1.5,0.7,1.5,1.5V15
		C107,15.8,106.3,16.5,105.5,16.5z"/>
	<path class="st0" d="M140.2,35.2V17.9c0-0.8-0.6-1.4-1.4-1.4h-5.8c-0.8,0-1.4,0.6-1.4,1.4v47.4c0,0.8,0.6,1.4,1.4,1.4h5.8
		c0.8,0,1.4-0.6,1.4-1.4V48.9c0-0.8,0.6-1.4,1.4-1.4h13.8c0.8,0,1.4,0.6,1.4,1.4v23.2c0,0,0,6.6-6.6,6.6h-28.6c-0.1,0-0.2,0-0.2,0
		c-1-0.2-7.3-1.5-7.3-7.4V13c0,0,0-0.1,0-0.1c0-0.7,0.7-8.1,8.1-8.1h27.4c0,0,0.1,0,0.1,0c0.7,0.1,7.1,0.7,7.1,7.2v23.2
		c0,0.8-0.6,1.4-1.4,1.4h-13.8C140.8,36.7,140.2,36,140.2,35.2z"/>
	<path class="st0" d="M180.4,65.3V18c0-0.8,0.6-1.4,1.4-1.4h5.8c0.8,0,1.4,0.6,1.4,1.4v47.3c0,0.8-0.6,1.4-1.4,1.4h-5.8
		C181.1,66.7,180.4,66.1,180.4,65.3z M198.9,5c0,0-22.4,0-29,0c-6.7,0-6.4,6.4-6.4,6.4s0,51.4,0,59.3c0,7.9,8.1,8.1,8.1,8.1
		s21.3-0.1,27.5-0.1c5.7,0,7-6.1,7.1-7.1c0-0.1,0-0.1,0-0.2v-60C206.3,4.2,199,5,198.9,5z"/>
	<path class="st0" d="M230.6,65.3V18c0-0.8,0.6-1.4,1.4-1.4h5.8c0.8,0,1.4,0.6,1.4,1.4v47.3c0,0.8-0.6,1.4-1.4,1.4H232
		C231.2,66.7,230.6,66.1,230.6,65.3z M249.1,5c0,0-22.4,0-29,0s-6.4,6.4-6.4,6.4s0,51.4,0,59.3c0,7.9,8.1,8.1,8.1,8.1
		s21.3-0.1,27.5-0.1c5.8,0,7-6.2,7.1-7.1c0-0.1,0-0.1,0-0.2v-60C256.5,4.3,249.1,5.1,249.1,5z"/>
	<path class="st0" d="M281.9,6.4v58.9c0,0.8,0.6,1.4,1.4,1.4h13.7c0.8,0,1.4,0.6,1.4,1.4v9.1c0,0.8-0.6,1.4-1.4,1.4H266
		c-0.8,0-1.4-0.6-1.4-1.4V6.4c0-0.8,0.6-1.4,1.4-1.4h14.5C281.3,4.9,281.9,5.6,281.9,6.4z"/>
</g>
</svg>
